PathFileType	4	(X/Y/Z)	/Users/niels/Desktop/University/Third Semester/Perception and Action/Exam/Gymnastics Motion Tracking/Code for Gym Tracking/Analyzed Data/Webcam_Backflip/id9_2_trajectory_Sports2D/id9_2_trajectory_Sports2D_px_person00.trc
DataRate	CameraRate	NumFrames	NumMarkers	Units	OrigDataRate	OrigDataStartFrame	OrigNumFrames
29.714285714285715	29.714285714285715	9	22	m	29.714285714285715	39	105
Frame#	Time	Hip			RHip			RKnee			RAnkle			RBigToe			RSmallToe			RHeel			LHip			LKnee			LAnkle			LBigToe			LSmallToe			LHeel			Neck			Head			Nose			RShoulder			RElbow			RWrist			LShoulder			LElbow			LWrist		
		X1	Y1	Z1	X2	Y2	Z2	X3	Y3	Z3	X4	Y4	Z4	X5	Y5	Z5	X6	Y6	Z6	X7	Y7	Z7	X8	Y8	Z8	X9	Y9	Z9	X10	Y10	Z10	X11	Y11	Z11	X12	Y12	Z12	X13	Y13	Z13	X14	Y14	Z14	X15	Y15	Z15	X16	Y16	Z16	X17	Y17	Z17	X18	Y18	Z18	X19	Y19	Z19	X20	Y20	Z20	X21	Y21	Z21	X22	Y22	Z22
39	1.3125	1.2114695659565635	-0.6266262736692543	0.0	1.2000910209957314	-0.6269005936501465	0.0	1.330808357993426	-0.8130817738496294	0.0	1.249589683196756	-1.040186313833679	0.0	1.358094294126539	-1.0734401767660489	0.0	1.332655266354785	-1.0863087423046789	0.0	1.215264117979087	-1.0629289979323848	0.0	1.2218967543645334	-0.6225943375810397	0.0	1.3239048824605415	-0.8064423822018427	0.0	1.226556777284104	-1.0090576552409802	0.0	1.3523324334807791	-1.0397601342072618	0.0	1.302929271519657	-1.0285079179702854	0.0	1.1897592385296636	-1.033911281267342	0.0	1.3056289082658736	-0.33756255769733795	0.0	1.3744606980126044	-0.20678263019473125	0.0	1.3848462523749006	-0.2893830807886446	0.0	1.2659530413466795	-0.3713141413082132	0.0	1.2202848044415975	-0.5125366512854695	0.0	1.2164524119901259	-0.6151299579090256	0.0	1.2949980286091174	-0.3692092749958224	0.0	1.245290788449741	-0.5046688668496838	0.0	1.2214279245455606	-0.5970944770307941	0.0
40	1.346153846153846	1.211812473024124	-0.6277418111859384	0.0	1.2007000065319369	-0.6278700888693323	0.0	1.3329123500573001	-0.8144378837632698	0.0	1.2504921879837398	-1.0419324894356345	0.0	1.3571044772285776	-1.074857595930907	0.0	1.3314813799130247	-1.0878639414407498	0.0	1.2144511395826922	-1.064966622705248	0.0	1.2269945016978212	-0.6243069744743875	0.0	1.3267458311427995	-0.8093681915215782	0.0	1.2267445291695616	-1.0111616942846708	0.0	1.3528909810889804	-1.0411478629334363	0.0	1.3161862363970878	-1.030689996137089	0.0	1.193134831776258	-1.0360384426032787	0.0	1.2833737413305988	-0.3306814574635904	0.0	1.3427907920294548	-0.19764287427775754	0.0	1.3595950920728301	-0.27750277453790273	0.0	1.2472699295714509	-0.36776486096210065	0.0	1.2525645944874573	-0.5061566830297813	0.0	1.292348718055216	-0.5928155220190823	0.0	1.2774757554506404	-0.3653419714135061	0.0	1.27172780287829	-0.496674887384015	0.0	1.2685195348563836	-0.574834882267541	0.0
41	1.3798076923076923	1.2100167974676652	-0.6181394293646336	0.0	1.2015435352149937	-0.6182697057749771	0.0	1.3282197105650828	-0.8110741934666571	0.0	1.2529841218272857	-1.0403535184095063	0.0	1.3561943036006	-1.073543238830726	0.0	1.330936880793101	-1.086185892098768	0.0	1.21622536889944	-1.064067658148892	0.0	1.2236787249721932	-0.6150673853024913	0.0	1.317003768889701	-0.8060203735071082	0.0	1.2272204901426798	-1.0089044067848514	0.0	1.3495367945041048	-1.0377130473830427	0.0	1.322020310438112	-1.0288586475844508	0.0	1.1957793282240416	-1.0338703554621658	0.0	1.259494215987171	-0.31529784083063883	0.0	1.311635767538819	-0.18228426247542662	0.0	1.3328536589138262	-0.2590014273495428	0.0	1.229617321419671	-0.3531099613894982	0.0	1.2844383076921377	-0.47107003366443645	0.0	1.3578660493574142	-0.5257907184703262	0.0	1.253020328881383	-0.3513565014947045	0.0	1.2890925105527764	-0.4674733974837881	0.0	1.2972441446956307	-0.5181066699320829	0.0
42	1.4134615384615383	1.2060695437523419	-0.5982263532529771	0.0	1.2028175051162329	-0.5982682294627432	0.0	1.3173016647399598	-0.8014662298904889	0.0	1.2569586340028076	-1.0337323432687395	0.0	1.3555233664490527	-1.0678602819477134	0.0	1.3315042034010727	-1.079673394614688	0.0	1.220997848401451	-1.0583782706437144	0.0	1.2116349344957686	-0.5950160498607089	0.0	1.2959708580094893	-0.7952054327990481	0.0	1.226688710215917	-1.001348539058908	0.0	1.3427513710629555	-1.0290346846361023	0.0	1.3184248767013758	-1.0225073892918755	0.0	1.1973514275652226	-1.0265672303224698	0.0	1.235986322416662	-0.2915752674993598	0.0	1.283981918366387	-0.16101264934429227	0.0	1.3072004889123254	-0.23448801656945426	0.0	1.2150001725448174	-0.32713282856432085	0.0	1.3095607442067876	-0.4103623167197899	0.0	1.401546753071548	-0.42578139899036854	0.0	1.2220996037719423	-0.32742378150646595	0.0	1.2914360967922351	-0.4209440170909515	0.0	1.3031227673954782	-0.43402088609558304	0.0
43	1.4471153846153846	1.1998082610227088	-0.5697961162347066	0.0	1.203690562160844	-0.5694535055753078	0.0	1.3026640736099737	-0.78463803555663	0.0	1.2630929617512516	-1.0204372341595715	0.0	1.3561831236668955	-1.0561572601302038	0.0	1.3345992685500765	-1.0669141137185483	0.0	1.2300167604877152	-1.0460908207799429	0.0	1.193193282325746	-0.566027793344231	0.0	1.2671578744974255	-0.776823971099456	0.0	1.2239743119726871	-0.9880857726208353	0.0	1.3327206336794115	-1.0152035132290995	0.0	1.306461728773785	-1.011324867649973	0.0	1.1972281590867302	-1.0139666001542613	0.0	1.214521223130363	-0.26087054785570835	0.0	1.2618557767152647	-0.13515624364121118	0.0	1.284559661672349	-0.20533936851562276	0.0	1.2039478504786871	-0.2911976152623791	0.0	1.3228866832538448	-0.33266746735834757	0.0	1.4168285391783164	-0.3119608151307309	0.0	1.188399951461001	-0.29553016312296937	0.0	1.2760714504739359	-0.3666980884276585	0.0	1.290590289172554	-0.33752608212000906	0.0
44	1.4807692307692306	1.1909462497559697	-0.5358443015089099	0.0	1.2024437824366072	-0.5346577680867597	0.0	1.2882389922830868	-0.7605052912101447	0.0	1.2729987405544925	-0.9993105267215707	0.0	1.3602855199634805	-1.0370235380131163	0.0	1.3425612697222593	-1.046936945211869	0.0	1.245037074004949	-1.0258543125982411	0.0	1.1723288737399318	-0.5315314378886796	0.0	1.2360862464383071	-0.7523047444061344	0.0	1.2179501260208754	-0.9695912899916976	0.0	1.3181185982390216	-0.9972050767431384	0.0	1.2878123985290508	-0.9955735574961713	0.0	1.194301181280619	-0.9966290133244603	0.0	1.196099646488472	-0.22577928937084482	0.0	1.2460195856335363	-0.10721069791525427	0.0	1.265896801605462	-0.1737547698771383	0.0	1.1949469478329102	-0.24843641419495094	0.0	1.322065259109283	-0.24892681400776484	0.0	1.4040739726285316	-0.20370459715727715	0.0	1.1572805345067918	-0.25920188753085793	0.0	1.245503428968791	-0.31635418229020684	0.0	1.2686122498744854	-0.24653755857502643	0.0
45	1.5144230769230769	1.1793110363179566	-0.5000753852009854	0.0	1.1974101379890931	-0.4975230821742663	0.0	1.27788756325351	-0.7298541042832923	0.0	1.2883903145793443	-0.9698279263145807	0.0	1.3704903752160882	-1.0093971838229359	0.0	1.3578590109646937	-1.0191137440646718	0.0	1.2669610503552087	-0.9970019405425934	0.0	1.152046398282162	-0.4958068817598611	0.0	1.208075622787712	-0.724330066086124	0.0	1.2073287982004148	-0.9476186393215177	0.0	1.2970539596605675	-0.9774830736097839	0.0	1.2643870148277798	-0.9770043063599876	0.0	1.186710170256521	-0.9760478881414762	0.0	1.180851864929361	-0.18970687602288383	0.0	1.2361898892845655	-0.0803152881961887	0.0	1.2513754484415478	-0.142644379232452	0.0	1.1851082728588085	-0.20341704031718663	0.0	1.308097727951719	-0.16993191605721225	0.0	1.3707627157236575	-0.1156753135236903	0.0	1.1329292958944603	-0.22260783717669905	0.0	1.2086534391989936	-0.2780138326347422	0.0	1.2457601091476735	-0.17777046779733713	0.0
46	1.548076923076923	1.1652205244873588	-0.46625367185916244	0.0	1.1880080017071117	-0.46192376087976067	0.0	1.273836709454956	-0.6942390381270203	0.0	1.3100338704486816	-0.9321766560927779	0.0	1.3891345189539117	-0.9729446895990161	0.0	1.3819057019232348	-0.9833217696129091	0.0	1.2949585398886918	-0.9596684107519127	0.0	1.1333359451521754	-0.4630094457193963	0.0	1.1856924968732314	-0.6962247086803415	0.0	1.1907742728747774	-0.9248650784573662	0.0	1.2695151810984187	-0.9595569942500831	0.0	1.2382318144755824	-0.9588579950045251	0.0	1.172205233944867	-0.9545100700534338	0.0	1.1681179758718385	-0.15620489517956554	0.0	1.2312705079067803	-0.05697667334304025	0.0	1.2404951382072567	-0.11507872125078412	0.0	1.1717091618432993	-0.16114393248164055	0.0	1.2846480315386224	-0.10481758504686454	0.0	1.3278744044004918	-0.055388829068687306	0.0	1.1167606275535529	-0.1894312110100616	0.0	1.1764010209371638	-0.2547274337464145	0.0	1.2269678392738927	-0.1424638855482757	0.0
47	1.5817307692307692	1.1495386524179172	-0.43745567274899305	0.0	1.175004802842731	-0.4311484238605579	0.0	1.2761605600289396	-0.6556909122525838	0.0	1.3374846804707137	-0.887263126936529	0.0	1.4167359280472898	-0.9280585723590017	0.0	1.4140044876254507	-0.9398774451843658	0.0	1.3272197942331982	-0.9146802554254659	0.0	1.116136742283387	-0.4361395953386697	0.0	1.1684582940655108	-0.6713935678989976	0.0	1.16779679212476	-0.9041874348328798	0.0	1.2377016120735065	-0.9464836929090519	0.0	1.210425405314651	-0.9443698151171931	0.0	1.149699052408464	-0.9345407704762213	0.0	1.1567210251682005	-0.12827021405696687	0.0	1.2293124449543669	-0.03820428723127651	0.0	1.2320156430671285	-0.09334967617777405	0.0	1.1537722108676325	-0.12574065809827928	0.0	1.2568611930907938	-0.05877734362479497	0.0	1.2852615077967662	-0.022469096807238322	0.0	1.1074741915232793	-0.16203109139249935	0.0	1.1543835253368135	-0.24684034678776853	0.0	1.2128728641654134	-0.1422702955561684	0.0
